<?xml version="1.0" encoding="UTF-8"?>
<svg width="15px" height="16px" viewBox="0 0 15 16" version="1.1" xmlns="http://www.w3.org/2000/svg" xmlns:xlink="http://www.w3.org/1999/xlink">
   <!-- Generator: Sketch 53.2 (72643) - https://sketchapp.com -->
   <title>Delete</title>
   <desc>Created with Sketch.</desc>
   <g id="Delete" stroke="none" stroke-width="1" fill="none" fill-rule="evenodd">
       <g id="trash-alt-(2)" fill="#AEBBC2" fill-rule="nonzero">
           <path d="M5.6,12.8 C6.0418278,12.8 6.4,12.4418278 6.4,12 L6.4,7.2 C6.4,6.7581722 6.0418278,6.4 5.6,6.4 C5.1581722,6.4 4.8,6.7581722 4.8,7.2 L4.8,12 C4.8,12.4418278 5.1581722,12.8 5.6,12.8 Z M13.6,3.2 L10.4,3.2 L10.4,2.4 C10.4,1.0745166 9.3254834,-4.4408921e-16 8,-4.4408921e-16 L6.4,-4.4408921e-16 C5.0745166,-4.4408921e-16 4,1.0745166 4,2.4 L4,3.2 L0.8,3.2 C0.3581722,3.2 0,3.5581722 0,4 C0,4.4418278 0.3581722,4.8 0.8,4.8 L1.6,4.8 L1.6,13.6 C1.6,14.9254834 2.6745166,16 4,16 L10.4,16 C11.7254834,16 12.8,14.9254834 12.8,13.6 L12.8,4.8 L13.6,4.8 C14.0418278,4.8 14.4,4.4418278 14.4,4 C14.4,3.5581722 14.0418278,3.2 13.6,3.2 Z M5.6,2.4 C5.6,1.9581722 5.9581722,1.6 6.4,1.6 L8,1.6 C8.4418278,1.6 8.8,1.9581722 8.8,2.4 L8.8,3.2 L5.6,3.2 L5.6,2.4 Z M11.2,13.6 C11.2,14.0418278 10.8418278,14.4 10.4,14.4 L4,14.4 C3.5581722,14.4 3.2,14.0418278 3.2,13.6 L3.2,4.8 L11.2,4.8 L11.2,13.6 Z M8.8,12.8 C9.2418278,12.8 9.6,12.4418278 9.6,12 L9.6,7.2 C9.6,6.7581722 9.2418278,6.4 8.8,6.4 C8.3581722,6.4 8,6.7581722 8,7.2 L8,12 C8,12.4418278 8.3581722,12.8 8.8,12.8 Z" id="Shape"></path>
       </g>
   </g>
</svg>

