<?xml version="1.0" encoding="UTF-8"?>
<svg width="16px" height="16px" viewBox="0 0 16 16" version="1.1" xmlns="http://www.w3.org/2000/svg" xmlns:xlink="http://www.w3.org/1999/xlink">
    <!-- Generator: Sketch 53.2 (72643) - https://sketchapp.com -->
    <title>Upload image</title>
    <desc>Created with Sketch.</desc>
    <g id="Upload-image" stroke="none" stroke-width="1" fill="none" fill-rule="evenodd">
        <g id="image-upload" fill="#60BEFF" fill-rule="nonzero">
            <path d="M12.9488056,9.14122852 C12.5281334,9.14122852 12.1871112,9.48242591 12.1871112,9.90331424 L12.1871112,10.1929068 L11.0598034,9.06501994 C10.2312719,8.24260234 8.89487577,8.24260234 8.06634422,9.06501994 L7.53315811,9.59847995 L5.64415587,7.70850736 C4.8058713,6.91013172 3.48898125,6.91013172 2.65069669,7.70850736 L1.5233889,8.83639423 L1.5233889,4.56871419 C1.5233889,4.14782587 1.86441112,3.80662847 2.28508335,3.80662847 L7.6169445,3.80662847 C8.03761673,3.80662847 8.37863895,3.46543107 8.37863895,3.04454275 C8.37863895,2.62365443 8.03761673,2.28245703 7.6169445,2.28245703 L2.28508335,2.28245703 C1.02306666,2.28245703 3.38260286e-16,3.30604923 0,4.56871419 L0,13.7137428 C3.38260286e-16,14.9764078 1.02306666,16 2.28508335,16 L11.4254167,16 C12.6874334,16 13.7105001,14.9764078 13.7105001,13.7137428 L13.7105001,9.90331424 C13.7105001,9.48242591 13.3694779,9.14122852 12.9488056,9.14122852 Z M2.28508335,14.4758286 C1.86441112,14.4758286 1.5233889,14.1346312 1.5233889,13.7137428 L1.5233889,10.9930968 L3.7323028,8.78304823 C3.96473323,8.56143849 4.33011933,8.56143849 4.56254976,8.78304823 L6.97712116,11.19886 L6.97712116,11.19886 L10.2524073,14.4758286 L2.28508335,14.4758286 Z M12.1871112,13.7137428 C12.1860152,13.859627 12.1379349,14.0012696 12.0500062,14.1176483 L8.61476423,10.6654 L9.14795034,10.13194 C9.2582654,10.0192923 9.40925652,9.9558126 9.56688229,9.9558126 C9.72450806,9.9558126 9.87549918,10.0192923 9.98581424,10.13194 L12.1871112,12.3496094 L12.1871112,13.7137428 Z M15.7746921,2.50346189 L13.4896087,0.217204729 C13.4171687,0.147823965 13.3317485,0.0934377311 13.2382495,0.0571667276 C13.0528064,-0.0190555759 12.8448049,-0.0190555759 12.6593618,0.0571667276 C12.5658628,0.0934377311 12.4804426,0.147823965 12.4080026,0.217204729 L10.1229192,2.50346189 C9.92970892,2.69677146 9.85425169,2.9785263 9.92497158,3.24259209 C9.99569147,3.50665788 10.2018444,3.71291674 10.4657746,3.78367295 C10.7297049,3.85442917 11.011315,3.77893319 11.2045254,3.58562361 L12.1871112,2.59491218 L12.1871112,6.85497135 C12.1871112,7.27585968 12.5281334,7.61705707 12.9488056,7.61705707 C13.3694779,7.61705707 13.7105001,7.27585968 13.7105001,6.85497135 L13.7105001,2.59491218 L14.6930859,3.58562361 C14.8361067,3.72989608 15.0307927,3.81104729 15.233889,3.81104729 C15.4369853,3.81104729 15.6316713,3.72989608 15.7746921,3.58562361 C15.9188905,3.44252937 16,3.24774341 16,3.04454275 C16,2.84134209 15.9188905,2.64655613 15.7746921,2.50346189 Z" id="Shape"></path>
        </g>
    </g>
</svg>